# AST/ASF file generated using VICON BodyLanguage
# -----------------------------------------------
:version 1.10
:name VICON
:units
  mass 1.0
  length 0.45
  angle deg
:documentation
   .ast/.asf automatically generated from VICON data using
   VICON BodyBuilder and BodyLanguage model FoxedUp or BRILLIANT.MOD
:root
   order TX TY TZ RX RY RZ
   axis XYZ
   position 0 0 0  
   orientation 0 0 0 
:bonedata
  begin
     id 1 
     name lhipjoint
     direction 0.662698 -0.695252 0.27831 
     length 2.53073 
     axis 0 0 0  XYZ
  end
  begin
     id 2 
     name lfemur
     direction 0.34202 -0.939693 0  
     length 7.16147  
     axis 0 0 20  XYZ
    dof rx ry rz
    limits (-160.0 20.0)
           (-70.0 70.0)
           (-60.0 70.0)
  end
  begin
     id 3 
     name ltibia
     direction 0.34202 -0.939693 0   
     length 7.63967   
     axis 0 0 20   XYZ
    dof rx
    limits (-10.0 170.0)
  end
  begin
     id 4 
     name lfoot
     direction 0.0938457 -0.257721 0.961651   
     length 1.89793   
     axis -90 7.62852e-016 20   XYZ
    dof rx rz
    limits (-45.0 90.0)
           (-70.0 20.0)
  end
  begin
     id 5 
     name ltoes
     direction -0.00116841 -0.0030592 0.999995   
     length 0.955649   
     axis -90 7.62852e-016 20   XYZ
    dof rx
    limits (-90.0 20.0)
  end
  begin
     id 6 
     name rhipjoint
     direction -0.649445 -0.705948 0.282592   
     length 2.49238  
     axis 0 0 0  XYZ 
  end
  begin
     id 7 
     name rfemur
     direction -0.34202 -0.939693 0   
     length 6.90728   
     axis 0 0 -20   XYZ
    dof rx ry rz
    limits (-160.0 20.0)
           (-70.0 70.0)
           (-70.0 60.0)
  end
  begin
     id 8 
     name rtibia
     direction -0.34202 -0.939693 0   
     length 7.72868   
     axis 0 0 -20   XYZ
    dof rx
    limits (-10.0 170.0)
 end
 begin
     id 9 
     name rfoot
     direction -0.0920068 -0.252865 0.963117   
     length 1.97476  
     axis -90 -7.62852e-016 -20   XYZ
    dof rx rz
    limits (-45.0 90.0)
           (-20.0 70.0)
  end
  begin
     id 10 
     name rtoes
     direction 0.000391322 0.00230649 0.999997   
     length 0.992641   
     axis -90 -7.62852e-016 -20   XYZ
    dof rx
    limits (-90.0 20.0)
  end
  begin
     id 11 
     name lowerback
     direction -0.00875327 0.998321 -0.0572635   
     length 2.20024   
     axis 0 0 0   XYZ
    dof rx ry rz
    limits (-20.0 45.0)
           (-30.0 30.0)
           (-30.0 30.0)
  end
  begin
     id 12 
     name upperback
     direction 0.00753931 0.999972 -0.000360425   
     length 2.20538   
     axis 0 0 0   XYZ
    dof rx ry rz
    limits (-20.0 45.0)
           (-30.0 30.0)
           (-30.0 30.0)
  end
  begin
     id 13 
     name thorax
     direction 0.0117767 0.999601 0.0256663   
     length 2.21508   
     axis 0 0 0   XYZ
    dof rx ry rz
    limits (-20.0 45.0)
           (-30.0 30.0)
           (-30.0 30.0)
  end
  begin
     id 14 
     name lowerneck
     direction 0.060228 0.994909 0.0807986   
     length 1.7607   
     axis 0 0 0   XYZ
    dof rx ry rz
    limits (-20.0 45.0)
           (-30.0 30.0)
           (-30.0 30.0)
  end
  begin
     id 15 
     name upperneck
     direction -0.0563647 0.959594 -0.275685   
     length 1.75612   
     axis 0 0 0   XYZ
    dof rx ry rz
    limits (-20.0 45.0)
           (-30.0 30.0)
           (-30.0 30.0)
  end
  begin
     id 16
     name head
     direction -0.0161544 0.99458 -0.102714  
     length 1.79288  
     axis 0 0 0   XYZ
    dof rx ry rz
    limits (-20.0 45.0)
           (-30.0 30.0)
           (-30.0 30.0)
  end
  begin
     id 17 
     name lclavicle
     direction 0.93913 0.332189 -0.087669  
     length 3.52087  
     axis 0 0 0   XYZ
    dof ry rz
    limits (-20.0 10.0)
           (0.0 20.0)
  end
  begin
     id 18 
     name lhumerus
     direction 1 -4.48974e-011 -2.70836e-027   
     length 5.35289   
     axis -180 -30 -90   XYZ
    dof rx ry rz
    limits (-60.0 90.0)
           (-90.0 90.0)
           (-90.0 90.0)
  end
  begin
     id 19
     name lradius
     direction 1 -4.48961e-011 -9.76021e-027   
     length 3.27727   
     axis -180 -30 -90   XYZ
    dof rx
    limits (-10.0 170.0)
  end
  begin
     id 20
     name lwrist
     direction 1 -4.49103e-011 -2.23668e-026   
     length 1.63864   
     axis 1.44924e-014 90 90   XYZ
    dof ry
    limits (-180.0 0.0)
 end
  begin
     id 21 
     name lhand
     direction 1 3.0697e-005 0.000161777   
     length 0.54443   
     axis 2.85318e-014 90 90   XYZ
    dof rx rz
    limits (-90.0 90.0)
           (-45.0 45.0)
  end
  begin
     id 22 
     name lfingers
     direction 1 -4.49027e-011 -8.9447e-026   
     length 0.438912   
     axis 5.70628e-014 90 90   XYZ
    dof rx
    limits (0.0 90.0)
  end
  begin
     id 23
     name lthumb
     direction 0.707058 2.6516e-005 0.707156   
     length 0.630274   
     axis -90 45 -3.53137e-014   XYZ
    dof rx rz
    limits (-45.0 45.0)
           (-45.0 45.0)
  end
  begin
     id 24 
     name rclavicle
     direction -0.95274 0.284984 -0.105215   
     length 3.43401  
     axis 0 0 0   XYZ 
    dof ry rz
    limits (-10.0 20.0)
           (-20.0 0.0)
  end
  begin
     id 25 
     name rhumerus
     direction -0.999999 -0.000575019 -0.00106829  
     length 5.52077   
     axis -180 30 90   XYZ
    dof rx ry rz
    limits (-90.0 60.0)
           (-90.0 90.0)
           (-90.0 90.0)
  end
  begin
     id 26 
     name rradius
     direction -1 -4.4879e-011 -6.35415e-027   
     length 3.32364   
     axis -180 30 90   XYZ
    dof rx
    limits (-10.0 170.0)
  end
  begin
     id 27 
     name rwrist
     direction -1 -4.49048e-011 -9.98542e-027   
     length 1.66182   
     axis 6.32482e-015 -90 -90   XYZ
    dof ry
    limits (-180.0 0.0)
  end
  begin
     id 28
     name rhand
     direction -1 -4.48978e-011 -1.99771e-026   
     length 0.732235   
     axis 1.27479e-014 -90 -90   XYZ
    dof rx rz
    limits (-90.0 90.0)
           (-45.0 45.0)
  end
  begin
     id 29
     name rfingers
     direction -1 -4.49144e-011 -3.99245e-026   
     length 0.590347   
     axis 2.5496e-014 -90 -90   XYZ
    dof rx
    limits (0.0 90.0)
  end
  begin
     id 30
     name rthumb
     direction -0.707107 -6.35121e-011 0.707107   
     length 0.847624   
     axis -90 -45 -2.82974e-014   XYZ
    dof rx rz
    limits (-45.0 45.0)
           (-45.0 45.0)
  end
:hierarchy
  begin
    root lhipjoint rhipjoint lowerback
    lhipjoint lfemur
    lfemur ltibia
    ltibia lfoot
    lfoot ltoes
    rhipjoint rfemur
    rfemur rtibia
    rtibia rfoot
    rfoot rtoes
    lowerback upperback
    upperback thorax
    thorax lowerneck lclavicle rclavicle
    lowerneck upperneck
    upperneck head
    lclavicle lhumerus
    lhumerus lradius
    lradius lwrist
    lwrist lhand lthumb
    lhand lfingers
    rclavicle rhumerus
    rhumerus rradius
    rradius rwrist
    rwrist rhand rthumb
    rhand rfingers
  end

#!OML:ASF G:\Work\Work\Patient Classification 1\Elijah\terrain1\Elijah.ASF
:FULLY-SPECIFIED
:DEGREES
4427
root 2.50167 22.5792 11.9523 33.9574 84.8258 22.5712
lowerback 7.44796 1.05261 6.64725
upperback 0.965116 2.14037 3.25902
thorax -3.06556 1.04016 -0.562264
lowerneck -13.9992 11.7867 12.4334
upperneck 32.2581 20.8255 -14.4822
head 17.21 9.02786 -4.03397
rclavicle 4.77083e-015 -7.95139e-015
rhumerus -31.2096 -0.343099 -78.2292
rradius 35.411
rwrist -4.91837
rhand -16.9634 23.5615
rfingers 7.12502
rthumb 9.27068 -6.21464
lclavicle 4.77083e-015 -7.95139e-015
lhumerus -43.8459 -3.54984 87.9912
lradius 48.9064
lwrist 8.90541
lhand -19.3071 28.3846
lfingers 7.12502
lthumb 7.00868 58.2486
rfemur -29.7825 -5.4508 22.0031
rtibia 43.9204
rfoot -24.067 -6.1721
rtoes -9.43827
lfemur -40.9284 3.13311 -24.8005
ltibia 81.1169
lfoot 4.87734 -12.6364
ltoes -1.90634
4428
root 2.63494 22.6405 12.1248 29.0272 85.1518 19.6517
lowerback 8.55499 1.13237 4.95817
upperback 1.72031 2.20042 3.89695
thorax -2.98355 1.11301 1.01239
lowerneck -13.9889 11.7459 12.5384
upperneck 32.1896 20.8474 -14.7581
head 17.2457 9.02744 -4.1656
rclavicle -1.23246e-014 -1.59028e-015
rhumerus -31.1407 0.103531 -78.2648
rradius 35.5242
rwrist -5.27635
rhand -16.7751 23.6864
rfingers 7.12502
rthumb 9.45231 -6.08167
lclavicle -1.23246e-014 -1.59028e-015
lhumerus -43.7352 -3.17961 88.012
lradius 48.2905
lwrist 8.59006
lhand -17.3066 26.5793
lfingers 7.12502
lthumb 8.9395 56.37
rfemur -25.9329 -4.09294 22.8756
rtibia 42.9809
rfoot -24.3018 -9.46095
rtoes -14.2418
lfemur -38.2841 4.68876 -23.3864
ltibia 80.3298
lfoot 3.68303 -14.0912
ltoes -2.81933
4429
root 2.68559 22.6524 12.0982 30.1409 85.8253 20.5388
lowerback 8.36488 0.981753 5.65866
upperback 1.64259 2.05724 3.92872
thorax -2.93788 1.03794 0.674343
lowerneck -13.8572 11.7108 12.4434
upperneck 31.9932 20.8521 -14.9107
head 17.1256 9.01863 -4.21682
rclavicle -3.97569e-014 -7.15625e-014
rhumerus -31.0339 0.533285 -78.2389
rradius 35.6022
rwrist -5.51426
rhand -17.0777 23.6649
rfingers 7.12502
rthumb 9.16036 -6.11612
lclavicle -3.97569e-014 -7.15625e-014
lhumerus -43.5688 -2.81334 88.0193
lradius 47.5794
lwrist 8.19029
lhand -16.5329 25.3129
lfingers 7.12502
lthumb 9.68607 55.0702
rfemur -25.6797 -4.75848 22.9194
rtibia 42.2691
rfoot -24.3644 -8.16173
rtoes -10.4658
lfemur -39.5339 4.61381 -23.5126
ltibia 80.0136
lfoot 2.54222 -13.8838
ltoes -5.92161
4430
root 2.75502 22.6878 12.1453 28.3037 86.3825 18.8212
lowerback 8.35756 0.982186 5.6374
upperback 1.69552 2.06348 4.07032
thorax -2.88496 1.04625 0.833212
lowerneck -13.8962 11.7039 12.3825
upperneck 32.0337 20.8537 -14.8564
head 17.1372 9.01675 -4.18127
rclavicle 1.86858e-014 -1.11319e-014
rhumerus -30.9982 0.791316 -78.3825
rradius 35.6622
rwrist -5.49568
rhand -17.6538 23.6243
rfingers 7.12502
rthumb 8.60442 -6.18039
lclavicle 1.86858e-014 -1.11319e-014
lhumerus -43.2512 -3.05408 87.757
lradius 46.7909
lwrist 8.28999
lhand -15.8027 23.9421
lfingers 7.12502
lthumb 10.3905 53.6654
rfemur -24.7729 -4.20997 23.1951
rtibia 41.5462
rfoot -25.0072 -7.05161
rtoes -4.15409
lfemur -39.9339 5.23543 -23.1312
ltibia 79.3313
lfoot 1.33234 -14.3657
ltoes -9.29437
4431
root 2.8156 22.676 12.1394 20.427 87.3733 10.7423
lowerback 8.07932 0.868239 6.70111
upperback 1.62592 1.9968 4.18187
thorax -2.77256 1.01107 0.371075
lowerneck -14.1487 11.6696 12.6079
upperneck 32.2182 20.8211 -14.9612
head 17.3457 9.00244 -4.26481
rclavicle 4.77083e-015 6.83819e-014
rhumerus -30.9668 0.807258 -78.4139
rradius 35.6827
rwrist -5.41195
rhand -17.6774 23.5947
rfingers 7.12502
rthumb 8.58164 -6.21093
lclavicle 4.77083e-015 6.83819e-014
lhumerus -43.325 -2.33081 87.5861
lradius 46.2995
lwrist 7.37147
lhand -15.6256 23.5332
lfingers 7.12502
lthumb 10.5614 53.2479
rfemur -24.59 -5.20542 24.1386
rtibia 41.1388
rfoot -24.5626 -8.19589
rtoes -8.65576
lfemur -41.1031 4.65206 -22.3343
ltibia 79.0647
lfoot 1.28294 -14.0892
ltoes -4.29094
4432
root 2.88221 22.6881 12.1832 25.0718 87.2387 15.6959
lowerback 8.34306 1.09313 5.92781
upperback 1.72539 2.24333 4.16783
thorax -2.83451 1.13791 0.755216
lowerneck -14.3173 11.6352 12.6929
upperneck 32.3416 20.7451 -14.913
head 17.4407 8.97492 -4.27136
rclavicle -6.75868e-015 -1.11319e-014
rhumerus -30.9238 0.765241 -78.4372
rradius 35.6466
rwrist -5.48596
rhand -17.9101 23.4285
rfingers 7.12502
rthumb 8.35713 -6.38622
lclavicle -6.75868e-015 -1.11319e-014
lhumerus -43.1719 -2.10966 87.3169
lradius 45.5867
lwrist 6.89066
lhand -17.9052 26.0398
lfingers 7.12502
lthumb 8.36183 55.8543
rfemur -23.6817 -4.78497 24.0099
rtibia 40.6979
rfoot -24.5453 -9.11507
rtoes -9.88977
lfemur -41.1378 5.24822 -22.4854
ltibia 78.2764
lfoot 0.603282 -14.3306
ltoes -2.57642
4433
root 2.93985 22.6916 12.1606 32.3138 87.7379 22.7001
lowerback 8.14482 0.98355 6.44852
upperback 1.59278 2.11754 3.92513
thorax -2.83711 1.0655 0.230583
lowerneck -14.2649 11.6283 12.6376
upperneck 32.4062 20.6755 -14.6799
head 17.3923 8.96608 -4.18066
rclavicle 1.90833e-014 6.67916e-014
rhumerus -30.9313 0.663567 -78.6664
rradius 35.6381
rwrist -5.5615
rhand -18.218 23.4087
rfingers 7.12502
rthumb 8.05997 -6.41757
lclavicle 1.90833e-014 6.67916e-014
lhumerus -42.9161 -1.94826 86.7666
lradius 44.6719
lwrist 6.51248
lhand -17.5967 26.0158
lfingers 7.12502
lthumb 8.65954 55.8182
rfemur -23.5444 -5.16193 23.8047
rtibia 40.2559
rfoot -24.575 -8.9569
rtoes -8.42903
lfemur -42.1852 4.8843 -23.0418
ltibia 77.433
lfoot -0.600503 -13.7653
ltoes -5.49656
4434
root 3.00592 22.7073 12.1671 31.2043 87.786 21.8107
lowerback 8.38276 1.02476 6.54089
upperback 1.64146 2.20086 3.90282
thorax -2.91123 1.10549 0.142554
lowerneck -14.1005 11.5875 12.4432
upperneck 32.3218 20.6464 -14.623
head 17.2597 8.95242 -4.13723
rclavicle -5.96354e-015 -1.27222e-014
rhumerus -30.8732 0.508807 -78.6695
rradius 35.5508
rwrist -5.13015
rhand -18.096 23.5356
rfingers 7.12502
rthumb 8.17765 -6.28616
lclavicle -5.96354e-015 -1.27222e-014
lhumerus -42.9242 -2.34874 86.7955
lradius 44.1933
lwrist 7.04885
lhand -17.2847 26.0008
lfingers 7.12502
lthumb 8.96067 55.7905
rfemur -22.854 -5.03783 23.766
rtibia 39.9676
rfoot -25.0215 -8.43959
rtoes -6.24105
lfemur -42.2197 4.99665 -22.9691
ltibia 76.3185
lfoot -1.05857 -13.6966
ltoes -1.34377
4435
root 3.08158 22.7275 12.2091 30.7363 87.9688 21.5718
lowerback 8.46828 1.04524 6.0752
upperback 1.74097 2.20429 4.13416
thorax -2.88232 1.11729 0.6396
lowerneck -13.9992 11.5778 12.0507
upperneck 32.25 20.7277 -14.5725
head 17.1461 8.95774 -4.03382
rclavicle 3.97569e-016 -1.74931e-014
rhumerus -30.7724 0.992875 -78.5521
rradius 35.4883
rwrist -5.05958
rhand -18.0318 23.5307
rfingers 7.12502
rthumb 8.23965 -6.28861
lclavicle 3.97569e-016 -1.74931e-014
lhumerus -42.9559 -1.02884 86.4914
lradius 43.5068
lwrist 6.02013
lhand -16.7258 25.5315
lfingers 7.12502
lthumb 9.4999 55.2974
rfemur -22.0558 -4.76807 23.9555
rtibia 39.6994
rfoot -25.4392 -8.72243
rtoes -6.1454
lfemur -42.1719 5.24743 -22.8281
ltibia 75.0514
lfoot -2.17651 -13.8437
ltoes -2.0147
4436
root 3.13643 22.7283 12.1997 42.3784 88.2916 32.8823
lowerback 8.20384 0.991235 6.2311
upperback 1.62079 2.11728 3.98142
thorax -2.851 1.06852 0.408432
lowerneck -14.0239 11.5957 11.9593
upperneck 32.3073 20.7358 -14.4203
head 17.141 8.96384 -3.94996
rclavicle -4.37326e-015 -5.88403e-014
rhumerus -30.7293 1.09328 -78.5686
rradius 35.4789
rwrist -5.21365
rhand -17.5392 23.5723
rfingers 7.12502
rthumb 8.71504 -6.22779
lclavicle -4.37326e-015 -5.88403e-014
lhumerus -42.9702 -0.796261 86.238
lradius 43.0316
lwrist 5.76016
lhand -16.6895 25.4969
lfingers 7.12502
lthumb 9.5349 55.2611
rfemur -22.1494 -5.40864 23.8183
rtibia 39.4786
rfoot -25.2393 -8.93967
rtoes -7.59866
lfemur -43.0156 4.90628 -23.3176
ltibia 73.7046
lfoot -3.23599 -13.2109
ltoes -3.82522
4437
root 3.21063 22.7448 12.2215 49.2631 88.1153 39.8419
lowerback 8.21765 1.16267 5.86268
upperback 1.67339 2.29582 3.79139
thorax -2.80321 1.15776 0.397992
lowerneck -14.0823 11.5761 12.061
upperneck 32.3754 20.6259 -14.276
head 17.1553 8.9395 -3.92877
rclavicle 2.38542e-015 6.67916e-014
rhumerus -30.6834 0.63774 -78.608
rradius 35.4005
rwrist -4.95831
rhand -17.16 23.5376
rfingers 7.12502
rthumb 9.08098 -6.24692
lclavicle 2.38542e-015 6.67916e-014
lhumerus -42.8503 -1.06067 86.058
lradius 42.5386
lwrist 5.73328
lhand -16.8552 25.7694
lfingers 7.12502
lthumb 9.37505 55.5409
rfemur -21.5698 -5.15212 23.5667
rtibia 39.1509
rfoot -25.1264 -9.3233
rtoes -6.93844
lfemur -43.0502 5.22176 -23.6694
ltibia 72.1337
lfoot -3.8904 -13.0311
ltoes -3.1933
